<svg width="83" height="28" viewBox="0 0 83 28" fill="none" xmlns="http://www.w3.org/2000/svg">
<g clip-path="url(#clip0_656_1478)">
<path fill-rule="evenodd" clip-rule="evenodd" d="M2.76562 27.5605V24.0402C2.76562 23.9049 2.86137 23.7873 2.99434 23.7598C9.3632 22.4459 15.4497 22.4459 21.8197 23.7598C21.9527 23.7873 22.0485 23.9049 22.0485 24.0402V27.5605C22.0485 27.7409 21.8823 27.8758 21.7052 27.8397C15.4152 26.5568 9.39758 26.557 3.10886 27.8397C2.93163 27.8758 2.76562 27.7409 2.76562 27.5605Z" fill="#4666FF"/>
<path fill-rule="evenodd" clip-rule="evenodd" d="M25.0626 1.99566L20.4718 19.4779C19.0573 19.7174 17.4825 19.7706 15.7475 19.4779L12.5447 7.74326L9.28845 19.4779C7.84711 19.744 6.32577 19.7706 4.61748 19.4779L0 1.99566C1.49467 1.67637 2.93602 1.70295 4.32388 1.99566L7.31339 14.3157L10.1959 1.99566C11.6373 1.70295 13.3454 1.67637 14.8401 1.99566L18.31 14.369L20.7388 1.99566C22.2334 1.67637 23.7014 1.70295 25.0626 1.99566Z" fill="#2C2A29"/>
<path fill-rule="evenodd" clip-rule="evenodd" d="M34.6885 12.7723C34.6885 10.5903 33.6209 9.31321 31.7524 9.31321C29.9375 9.31321 28.8164 10.5903 28.8164 12.7723C28.8164 15.0606 29.9108 16.2582 31.7524 16.2582C33.6209 16.2582 34.6885 15.0606 34.6885 12.7723ZM24.7861 12.7723C24.7861 8.51483 27.6688 5.85391 31.7524 5.85391C35.9963 5.85391 38.7187 8.62132 38.7187 12.7723C38.7187 17.0564 35.9697 19.7173 31.7524 19.7173C27.5087 19.7173 24.7861 16.9765 24.7861 12.7723Z" fill="#2C2A29"/>
<path fill-rule="evenodd" clip-rule="evenodd" d="M60.8954 19.4512H56.9185V11.3888C56.9185 9.97839 56.011 9.25991 54.4095 9.25991C53.6622 9.25991 52.9415 9.41956 52.3543 9.6591C52.5679 10.2445 52.6748 10.8831 52.6748 11.575V19.4512H48.6978V11.3888C48.6978 9.97839 47.7902 9.25991 46.1888 9.25991C45.5749 9.25991 44.9877 9.33982 44.4805 9.47288V19.4512H40.4502L40.477 7.61017C42.0783 6.49251 44.5873 5.88052 46.6958 5.88052C48.3775 5.88052 49.8187 6.43935 50.8597 7.34405C52.221 6.46593 54.1159 5.88052 55.7174 5.88052C58.6268 5.88052 60.8954 7.42395 60.8954 9.97839V19.4512Z" fill="#2C2A29"/>
<path fill-rule="evenodd" clip-rule="evenodd" d="M72.8041 12.7457C72.8041 10.7767 71.7365 9.07365 69.2542 9.07365C68.6936 9.07365 68.0531 9.12697 67.3859 9.23329V16.1783C67.9196 16.2848 68.5602 16.3645 69.361 16.3645C71.4962 16.3645 72.8041 15.3801 72.8041 12.7457ZM76.8077 13.2247C76.8077 16.8436 75.0994 19.7173 71.0691 19.7173C69.8414 19.7173 68.5068 19.3181 67.3859 18.5465V23.4692C66.4783 24.1876 64.4232 24.773 63.3555 24.773V6.9184C64.6633 6.30641 66.7987 5.88065 69.0139 5.88065C73.845 5.88065 76.8077 8.51482 76.8077 13.2247Z" fill="#2C2A29"/>
<path fill-rule="evenodd" clip-rule="evenodd" d="M78.568 6.25311C79.1285 6.01356 79.8224 5.8805 80.5965 5.8805C81.3705 5.8805 82.0377 6.01356 82.5982 6.25311V19.4512H78.568V6.25311ZM78.5146 2.04893C78.5146 0.931272 79.4488 0 80.5697 0C81.7174 0 82.6516 0.904693 82.6516 2.04893C82.6516 3.13985 81.7174 4.0977 80.5697 4.0977C79.4488 4.0977 78.5146 3.193 78.5146 2.04893Z" fill="#2C2A29"/>
</g>
<defs>
<clipPath id="clip0_656_1478">
<rect width="83" height="28" fill="white"/>
</clipPath>
</defs>
</svg>
